<svg width="45" height="38" viewBox="0 0 45 38" fill="none" xmlns="http://www.w3.org/2000/svg">
<path d="M32.9739 3.01998C35.5652 3.16811 37.6658 4.18961 38.723 6.61938C40.0089 9.57481 39.4701 12.6036 38.4077 15.5529C37.605 17.7813 36.2473 19.7375 34.6626 21.6017C32.6238 24.0955 30.0554 26.1335 27.1474 27.5647C24.0575 29.0579 20.7422 30.0109 17.3578 30.3788C16.3594 30.4854 15.2999 30.519 14.4746 31.3253C13.2455 32.5257 11.993 33.7039 10.7285 34.8687C10.3413 35.2254 9.93022 35.5573 9.51747 35.8872C9.28405 35.5264 9.06012 35.1591 8.84567 34.7853C10.5602 33.3029 12.2749 31.8208 13.9985 30.3487C14.3785 30.041 14.6843 29.655 14.8923 29.2205C15.1004 28.786 15.2049 28.3148 15.1978 27.8434C15.1794 26.3489 15.4258 24.8516 15.926 23.4174C16.251 22.5139 16.4796 21.5836 16.6081 20.6418C17.072 17.67 18.33 14.9272 19.7766 12.3181C21.0185 9.94324 22.7448 7.82708 24.8447 6.10536C27.263 4.20775 29.8567 2.84173 32.9739 3.01998ZM37.103 6.32464C37.0701 6.1934 37.0371 6.06215 37.0041 5.93089C36.0522 6.21408 35.1003 6.49728 34.1484 6.78049C34.1774 6.88825 34.2063 6.99602 34.2352 7.10379C35.3 7.27061 36.2127 6.84168 37.103 6.32464ZM33.0193 8.93317C34.6894 8.83462 36.3349 8.39891 37.8514 7.65368C37.3369 7.20153 33.6765 8.14861 33.0193 8.93317ZM38.3035 8.8846C36.0479 9.34608 34.0402 9.75684 32.0325 10.1676C33.1484 10.8299 37.0805 9.97526 38.3035 8.8846ZM38.3091 10.3127C35.8243 10.8699 33.3395 11.4271 30.8547 11.9843C30.8827 12.1092 30.9108 12.2342 30.9388 12.3591C33.4592 11.9335 35.9749 11.4859 38.3986 10.6043L38.3091 10.3127ZM37.7056 12.02C35.2676 12.4829 32.8296 12.9459 30.3916 13.4089L30.4335 13.6792C32.8715 13.2155 35.3095 12.7519 37.7475 12.2883C37.7335 12.1988 37.7196 12.1094 37.7056 12.02L37.7056 12.02ZM37.7693 13.5753C36.6989 13.8241 35.6359 14.1271 34.5565 14.3099C32.6874 14.6264 30.8063 14.8545 28.9354 15.1595C28.7093 15.1964 28.5149 15.4793 28.3058 15.6481L28.411 15.9368C31.6069 15.578 34.776 15.0707 37.8362 13.9597C37.8139 13.8315 37.7916 13.7034 37.7693 13.5753L37.7693 13.5753ZM36.9722 15.8639C33.7832 16.247 30.5704 16.628 27.3602 17.0379C27.2369 17.0536 27.1392 17.3478 26.9869 17.5761C29.0537 18.2679 36.1845 16.9794 36.9722 15.8639ZM36.4553 17.4885C35.6279 17.6418 34.996 17.7865 34.3583 17.872C32.0799 18.1774 29.8023 18.5387 27.5183 18.7147C26.7144 18.7766 25.9779 18.5999 25.5614 19.5864C27.1926 20.2664 35.1484 18.844 36.4553 17.4885ZM35.2234 19.2544C34.534 19.3903 33.8387 19.499 33.1564 19.667C30.5813 20.3698 27.9301 20.7018 25.2883 20.6524C24.5946 20.6229 24.2556 20.9563 24.0258 21.7593C27.9474 21.6844 31.6229 20.7164 35.2701 19.5727C35.2545 19.4666 35.2389 19.3605 35.2234 19.2544L35.2234 19.2544ZM33.7996 21.1777C31.8846 21.5447 30.0416 21.9579 28.1831 22.2353C26.6693 22.4613 25.134 22.4903 23.6147 22.6802C23.0538 22.8248 22.5088 23.0304 21.9902 23.2929C23.7266 24.2597 32.6554 22.5291 33.7996 21.1777ZM31.7874 23.1531C31.6345 23.1568 31.4816 23.1681 31.3292 23.1869C28.6565 23.6409 25.986 24.1118 23.3105 24.5433C22.7928 24.6268 22.2537 24.5239 21.7288 24.5761C21.4332 24.6427 21.1462 24.7466 20.8751 24.8851C20.914 25.017 20.9528 25.1488 20.9917 25.2807C24.6953 25.3261 28.3391 24.9527 31.8192 23.4347L31.7874 23.1531ZM19.0842 26.7803L19.2086 27.1024C22.4972 27.2228 25.7168 26.7888 28.8147 25.3691C27.6663 25.5546 26.5212 25.8133 25.3689 25.9085C23.6479 26.0508 21.9205 26.0445 20.1989 26.1804C19.8206 26.2103 19.4555 26.5716 19.0842 26.7803L19.0842 26.7803ZM20.9787 12.2195C18.4921 16.4778 17.2454 21.0589 16.3335 25.7517C16.1996 26.494 16.1688 27.2463 16.2419 27.9881C23.4953 21.0096 29.5583 13.2502 34.1854 4.35411C32.0829 3.9154 30.272 3.99515 28.412 4.92653C25.0982 6.58589 22.799 9.10222 20.9787 12.2195Z" fill="black"/>
</svg>
